# xmcd
#
# Track frame offsets: 
#        182
#        26437
#        54037
#        69702
#        93370
#        114942
#        158977
#        178232
#        215867
#        240400
#        256127
#
# Disc length: 3789 seconds
#
# Revision: 1
# Processed by: cddbd v1.5.2PL0 Copyright (c) Steve Scherf et al.
# Submitted via: ExactAudioCopy v0.99pb5
#
DISCID=8e0ecb0b
DTITLE=Magic Frankie And The Blues Disease - Built For Comfort
DYEAR=1993
DGENRE=Blues
TTITLE0=Watchdog
TTITLE1=Cryin' Over You
TTITLE2=Dissatisfied
TTITLE3=Say You're Hurt
TTITLE4=Sympathy
TTITLE5=Dark Room
TTITLE6=Singin' The Blues
TTITLE7=No Road Back Home
TTITLE8=I Just Wanna Make Love To You
TTITLE9=Cannonball
TTITLE10=Built For Comfort
EXTD=
EXTT0=
EXTT1=
EXTT2=
EXTT3=
EXTT4=
EXTT5=
EXTT6=
EXTT7=
EXTT8=
EXTT9=
EXTT10=
PLAYORDER=
